<svg xmlns="http://www.w3.org/2000/svg" viewBox="0 0 760 360" width="760" height="360" font-family="Helvetica, Arial, sans-serif">
  <rect width="760" height="360" fill="#FFFFFF"/>
  <text x="24" y="34" font-size="18" font-weight="800" fill="#1a1714">Strap — seatbelt / vest concepts</text>

  <!-- ===== C · seatbelt buckle (220x280) ===== -->
  <g transform="translate(24,56) scale(0.74)" fill="none" stroke="#1a1714" stroke-width="2" stroke-linecap="round" stroke-linejoin="round">
    <rect x="0" y="0" width="220" height="280" fill="#F6F0E2" stroke="none"/>
    <path d="M84 8 V96 M136 8 V96"/><path d="M84 8 H136" stroke-width="2.4"/>
    <g stroke-width="0.9" stroke="#7a6f5e"><path d="M94 10 V94 M104 10 V94 M114 10 V94 M124 10 V94"/></g>
    <g stroke-width="1.6" stroke-dasharray="2 9"><path d="M89 12 V92 M131 12 V92"/></g>
    <path d="M80 96 h60 a6 6 0 0 1 6 6 v34 h-72 v-34 a6 6 0 0 1 6 -6 z" fill="#F6F0E2"/>
    <rect x="96" y="110" width="28" height="9" rx="4" fill="#fff"/>
    <g stroke-width="0.9"><path d="M120 126 h20 M116 132 h24"/></g>
    <path d="M52 140 h116 a14 14 0 0 1 14 14 v50 a14 14 0 0 1 -14 14 h-116 a14 14 0 0 1 -14 -14 v-50 a14 14 0 0 1 14 -14 z" fill="#F6F0E2"/>
    <rect x="74" y="140" width="72" height="10" rx="3" fill="#fff"/>
    <rect x="86" y="170" width="48" height="22" rx="11" fill="#fff"/><path d="M96 181 h28" stroke-width="2.4"/>
    <g stroke-width="1"><path d="M150 196 l14 -10 M150 204 l22 -16 M150 212 l30 -22 M134 214 l40 -30"/></g>
    <path d="M88 218 V272 M132 218 V272"/><path d="M84 272 H136" stroke-width="2.4"/>
    <g stroke-width="0.9" stroke="#7a6f5e"><path d="M98 220 V270 M108 220 V270 M118 220 V270 M126 220 V270"/></g>
    <g stroke-width="1.6" stroke-dasharray="2 9"><path d="M92 222 V268 M128 222 V268"/></g>
    <g fill="#1a1714" stroke="none"><circle cx="44" cy="208" r="1.4"/><circle cx="50" cy="214" r="1.4"/><circle cx="170" cy="206" r="1.4"/><circle cx="176" cy="212" r="1.4"/></g>
  </g>
  <text x="105" y="332" text-anchor="middle" font-size="13" font-weight="700" fill="#1a1714">C · Seatbelt buckle</text>

  <!-- ===== D · diagonal seatbelt (240x240) ===== -->
  <g transform="translate(270,64) scale(0.72)" fill="none" stroke="#1a1714" stroke-width="2" stroke-linecap="round" stroke-linejoin="round">
    <rect width="240" height="240" fill="#F6F0E2" stroke="none"/>
    <rect x="34" y="34" width="172" height="172" rx="40" stroke-width="2.4"/>
    <g transform="rotate(34 120 120)">
      <path d="M100 18 V222 M140 18 V222"/>
      <g stroke-width="0.9" stroke="#7a6f5e"><path d="M110 20 V220 M120 20 V220 M130 20 V220"/></g>
      <g stroke-width="1.5" stroke-dasharray="2 9"><path d="M104 22 V218 M136 22 V218"/></g>
      <rect x="84" y="104" width="72" height="44" rx="11" fill="#F6F0E2" stroke-width="2.2"/>
      <rect x="90" y="110" width="60" height="32" rx="7" fill="none" stroke-width="1"/>
      <rect x="106" y="120" width="28" height="11" rx="5" fill="#fff"/>
    </g>
    <g fill="#1a1714" stroke="none"><circle cx="54" cy="180" r="1.5"/><circle cx="62" cy="186" r="1.4"/><circle cx="182" cy="64" r="1.5"/></g>
  </g>
  <text x="356" y="332" text-anchor="middle" font-size="13" font-weight="700" fill="#1a1714">D · Diagonal seatbelt</text>

  <!-- ===== E · vest (240x240) ===== -->
  <g transform="translate(516,64) scale(0.72)" fill="none" stroke="#1a1714" stroke-width="2" stroke-linecap="round" stroke-linejoin="round">
    <rect width="240" height="240" fill="#F6F0E2" stroke="none"/>
    <path d="M86 40 L120 60 L154 40 C176 48 184 70 184 96 L184 196 C184 204 178 210 170 210 L128 210 L120 150 L112 210 L70 210 C62 210 56 204 56 196 L56 96 C56 70 64 48 86 40 Z" fill="#F6F0E2" stroke-width="2.4"/>
    <path d="M86 40 L96 70 M154 40 L144 70"/>
    <g stroke-width="1.5" stroke-dasharray="2 8"><path d="M120 60 L120 150"/></g>
    <path d="M64 104 H176" stroke-width="9" stroke="#1a1714"/><path d="M64 104 H176" stroke-width="5" stroke="#F6F0E2"/>
    <rect x="104" y="93" width="32" height="22" rx="6" fill="#F6F0E2" stroke-width="2.2"/><rect x="111" y="100" width="18" height="8" rx="3" fill="#fff"/>
    <rect x="72" y="140" width="40" height="44" rx="6" stroke-width="1.8"/><rect x="128" y="140" width="40" height="44" rx="6" stroke-width="1.8"/>
    <path d="M72 152 H112 M128 152 H168" stroke-width="1.4"/>
    <g stroke-width="0.9"><path d="M168 70 l10 6 M166 80 l14 8 M62 70 l10 6"/></g>
    <g fill="#1a1714" stroke="none"><circle cx="62" cy="196" r="1.4"/><circle cx="170" cy="198" r="1.4"/></g>
  </g>
  <text x="602" y="332" text-anchor="middle" font-size="13" font-weight="700" fill="#1a1714">E · Utility / harness vest</text>
</svg>
