<svg xmlns="http://www.w3.org/2000/svg" viewBox="0 0 200 200" width="200" height="200">
  <g transform="rotate(35 100 100)" fill="none" stroke="#1a1714" stroke-width="2.6" stroke-linecap="round" stroke-linejoin="round">
    <!-- seatbelt webbing, finished ends -->
    <path d="M76 18 V182 M124 18 V182"/>
    <path d="M76 18 H124 M76 182 H124" stroke-width="2.2"/>
    <g stroke-width="1.05" stroke="#9a8f80"><path d="M88 20 V180 M100 20 V180 M112 20 V180"/></g>
    <g stroke-width="1.8" stroke-dasharray="2 9"><path d="M81 23 V177 M119 23 V177"/></g>
    <!-- buckle / latch plate -->
    <rect x="60" y="74" width="80" height="52" rx="13" fill="#ffffff" stroke-width="2.8"/>
    <rect x="67" y="81" width="66" height="38" rx="9" fill="none" stroke-width="1.2"/>
    <rect x="85" y="95" width="30" height="11" rx="5" fill="#ffffff" stroke-width="2.1"/>
    <g stroke-width="1.05"><path d="M122 118 l12 -8 M116 122 l18 -12 M128 114 l8 -5"/></g>
  </g>
  <g fill="#1a1714" stroke="none">
    <circle cx="150" cy="58" r="1.4"/><circle cx="156" cy="64" r="1.2"/><circle cx="146" cy="66" r="1"/>
    <circle cx="50" cy="142" r="1.4"/><circle cx="44" cy="136" r="1.2"/><circle cx="54" cy="148" r="1"/>
  </g>
</svg>
