<svg xmlns="http://www.w3.org/2000/svg" viewBox="0 0 560 200" width="560" height="200" font-family="Helvetica, Arial, sans-serif">
  <g transform="translate(14,28) scale(0.72)">
    <g transform="rotate(35 100 100)" fill="none" stroke="#111827" stroke-width="2.6" stroke-linecap="round" stroke-linejoin="round">
      <path d="M76 18 V182 M124 18 V182"/>
      <path d="M76 18 H124 M76 182 H124" stroke-width="2.2"/>
      <g stroke-width="1.05" stroke="#9aa3ad"><path d="M88 20 V180 M100 20 V180 M112 20 V180"/></g>
      <g stroke-width="1.8" stroke-dasharray="2 9"><path d="M81 23 V177 M119 23 V177"/></g>
      <rect x="60" y="74" width="80" height="52" rx="13" fill="#FFFFFF" stroke-width="2.8"/>
      <rect x="67" y="81" width="66" height="38" rx="9" fill="none" stroke-width="1.2"/>
      <rect x="85" y="95" width="30" height="11" rx="5" fill="#FFFFFF" stroke-width="2.1"/>
      <g stroke-width="1.05"><path d="M122 118 l12 -8 M116 122 l18 -12"/></g>
    </g>
  </g>
  <text x="196" y="132" font-size="92" font-weight="800" letter-spacing="-3.5" fill="#111827">strap</text>
</svg>
